# xmcd
#
# Track frame offsets: 
#        150
#        24786
#        48170
#        69959
#        86268
#        104935
#        125629
#        145313
#        169732
#        189706
#        203785
#
# Disc length: 3083 seconds
#
# Revision: 1
# Processed by: cddbd v1.5.1PL0 Copyright (c) Steve Scherf et al.
# Submitted via: ExactAudioCopy v0.95b2
#
DISCID=960c090b
DTITLE=Various Artist - Smoking Jazz,
DYEAR=1900
DGENRE=Jazz
TTITLE0=Smoke Rings
TTITLE1=Come Back To Me
TTITLE2=Moonlight In Vermont
TTITLE3=You Turn The Tables On Me
TTITLE4=Hit The Road To Dreamland
TTITLE5=Where You Want To Be
TTITLE6=Just A Little Lovin
TTITLE7=Tribeca
TTITLE8=Tenderly
TTITLE9=More Than You Know
TTITLE10=Night Song
EXTD=
EXTT0=
EXTT1=
EXTT2=
EXTT3=
EXTT4=
EXTT5=
EXTT6=
EXTT7=
EXTT8=
EXTT9=
EXTT10=
PLAYORDER=
